Arrow.The.Ultimate.Weapon.2011.HDRip.XviD.AC3-JSB




Subtitles : Bulgarian



General
Complete name : Arrow.The.Ultimate.Weapon.2011.HDRip.XviD.AC3-JSB(Arrow.The.Ultimate.Weapon.2011).HDRip.XviD.AC3-JSB.avi
Format : AVI
Format/Info : Audio Video Interleave
Format profile : OpenDML
File size : 1.37 GiB
Duration : 1h 54mn
Overall bit rate : 1 721 Kbps
Writing application : PotEncoder.
Video #0
ID : 0
Format : MPEG-4 Visual
Format profile : Simple@L1
Format settings, BVOP : No
Format settings, QPel : No
Format settings, GMC : No warppoints
Format settings, Matrix : Default (MPEG)
Codec ID : XVID
Codec ID/Hint : XviD
Duration : 1h 54mn
Bit rate : 1 325 Kbps
Width : 720 pixels
Height : 400 pixels
Display aspect ratio : 16:9
Frame rate : 23.976 fps
Resolution : 24 bits
Colorimetry : 4:2:0
Scan type : Progressive
Bits/(Pixel*Frame) : 0.192
Stream size : 1.06 GiB (77%)
Writing library : Lavc52.108.0.
Audio #1
ID : 1
Format : AC-3
Format/Info : Audio Coding 3
Codec ID : 2000
Duration : 1h 54mn
Bit rate mode : Constant
Bit rate : 384 Kbps
Channel(s) : 6 channels
Channel positions : Front: L C R, Surround: L R, LFE
Sampling rate : 48.0 KHz
Resolution : 16 bits
Stream size : 314 MiB (22%)
Alignment : Aligned on interleaves
Interleave, duration : 32 ms (0.77 video frame)
Interleave, preload duration : 32 ms.



